{
	"asset":{
		"generator":"Khronos glTF Blender I/O v4.2.69",
		"version":"2.0"
	},
	"scene":0,
	"scenes":[
		{
			"name":"Scene",
			"nodes":[
				0
			]
		}
	],
	"nodes":[
		{
			"mesh":0,
			"name":"Abdomen.001",
			"rotation":[
				0.06369546055793762,
				0,
				0,
				0.997969388961792
			],
			"scale":[
				2.413501501083374,
				2.5557327270507812,
				3.364027976989746
			],
			"translation":[
				-118.58674621582031,
				2.268584728240967,
				-3.353915214538574
			]
		}
	],
	"materials":[
		{
			"doubleSided":true,
			"name":"TexturePaintPatte",
			"pbrMetallicRoughness":{
				"baseColorTexture":{
					"index":0
				},
				"metallicFactor":0
			}
		},
		{
			"doubleSided":true,
			"name":"BaseTHoraxTeexture",
			"pbrMetallicRoughness":{
				"baseColorFactor":[
					0,
					0,
					0,
					1
				],
				"metallicFactor":0
			}
		},
		{
			"doubleSided":true,
			"name":"Couleur2",
			"pbrMetallicRoughness":{
				"baseColorFactor":[
					0.6141078472137451,
					0.4695335030555725,
					0.25507161021232605,
					1
				],
				"metallicFactor":0
			}
		},
		{
			"doubleSided":true,
			"name":"Couleur1",
			"pbrMetallicRoughness":{
				"baseColorFactor":[
					0.31854820251464844,
					0.08537415415048599,
					0.00979294627904892,
					1
				],
				"metallicFactor":0
			}
		},
		{
			"doubleSided":true,
			"name":"Material.002",
			"pbrMetallicRoughness":{
				"baseColorTexture":{
					"index":1
				},
				"metallicFactor":0
			}
		},
		{
			"doubleSided":true,
			"name":"oEIL",
			"pbrMetallicRoughness":{
				"baseColorFactor":[
					1,
					0.32269129157066345,
					0,
					1
				],
				"metallicFactor":0,
				"roughnessFactor":0.36477985978126526
			}
		},
		{
			"doubleSided":true,
			"name":"NOIROEIL",
			"pbrMetallicRoughness":{
				"baseColorFactor":[
					0,
					0,
					0,
					1
				],
				"metallicFactor":0,
				"roughnessFactor":0.2578616440296173
			}
		}
	],
	"meshes":[
		{
			"name":"Cube.001",
			"primitives":[
				{
					"attributes":{
						"POSITION":0,
						"NORMAL":1,
						"TEXCOORD_0":2
					},
					"indices":3,
					"material":0
				},
				{
					"attributes":{
						"POSITION":4,
						"NORMAL":5,
						"TEXCOORD_0":6
					},
					"indices":7,
					"material":1
				},
				{
					"attributes":{
						"POSITION":8,
						"NORMAL":9,
						"TEXCOORD_0":10
					},
					"indices":11,
					"material":2
				},
				{
					"attributes":{
						"POSITION":12,
						"NORMAL":13,
						"TEXCOORD_0":14
					},
					"indices":15,
					"material":3
				},
				{
					"attributes":{
						"POSITION":16,
						"NORMAL":17,
						"TEXCOORD_0":18
					},
					"indices":19,
					"material":4
				},
				{
					"attributes":{
						"POSITION":20,
						"NORMAL":21,
						"TEXCOORD_0":22
					},
					"indices":23,
					"material":5
				},
				{
					"attributes":{
						"POSITION":24,
						"NORMAL":25,
						"TEXCOORD_0":26
					},
					"indices":27,
					"material":6
				}
			]
		}
	],
	"textures":[
		{
			"sampler":0,
			"source":0
		},
		{
			"sampler":0,
			"source":1
		}
	],
	"images":[
		{
			"mimeType":"image/png",
			"name":"Abdomen Base Color",
			"uri":"Abdomen%20Base%20Color.png"
		},
		{
			"mimeType":"image/png",
			"name":"Abdomen",
			"uri":"Abdomen.png"
		}
	],
	"accessors":[
		{
			"bufferView":0,
			"componentType":5126,
			"count":15979,
			"max":[
				3.9359235763549805,
				1.0469555854797363,
				4.204944610595703
			],
			"min":[
				-3.972858428955078,
				-1.7752994298934937,
				-0.5581371784210205
			],
			"type":"VEC3"
		},
		{
			"bufferView":1,
			"componentType":5126,
			"count":15979,
			"type":"VEC3"
		},
		{
			"bufferView":2,
			"componentType":5126,
			"count":15979,
			"type":"VEC2"
		},
		{
			"bufferView":3,
			"componentType":5123,
			"count":74496,
			"type":"SCALAR"
		},
		{
			"bufferView":4,
			"componentType":5126,
			"count":643,
			"max":[
				0.9525923132896423,
				0.9796004891395569,
				2.523237705230713
			],
			"min":[
				-0.9525961875915527,
				-0.5250392556190491,
				0.8760526776313782
			],
			"type":"VEC3"
		},
		{
			"bufferView":5,
			"componentType":5126,
			"count":643,
			"type":"VEC3"
		},
		{
			"bufferView":6,
			"componentType":5126,
			"count":643,
			"type":"VEC2"
		},
		{
			"bufferView":7,
			"componentType":5123,
			"count":2688,
			"type":"SCALAR"
		},
		{
			"bufferView":8,
			"componentType":5126,
			"count":410,
			"max":[
				0.45587798953056335,
				0.1114419549703598,
				2.7288527488708496
			],
			"min":[
				-0.4558815062046051,
				-0.27922922372817993,
				2.463886022567749
			],
			"type":"VEC3"
		},
		{
			"bufferView":9,
			"componentType":5126,
			"count":410,
			"type":"VEC3"
		},
		{
			"bufferView":10,
			"componentType":5126,
			"count":410,
			"type":"VEC2"
		},
		{
			"bufferView":11,
			"componentType":5123,
			"count":1728,
			"type":"SCALAR"
		},
		{
			"bufferView":12,
			"componentType":5126,
			"count":202,
			"max":[
				1.0919979810714722,
				0.9698394536972046,
				1.0091584920883179
			],
			"min":[
				-1.17288076877594,
				-1.1043106317520142,
				-0.909740686416626
			],
			"type":"VEC3"
		},
		{
			"bufferView":13,
			"componentType":5126,
			"count":202,
			"type":"VEC3"
		},
		{
			"bufferView":14,
			"componentType":5126,
			"count":202,
			"type":"VEC2"
		},
		{
			"bufferView":15,
			"componentType":5123,
			"count":960,
			"type":"SCALAR"
		},
		{
			"bufferView":16,
			"componentType":5126,
			"count":14640,
			"max":[
				0.6358122229576111,
				0.6855477690696716,
				2.2918622493743896
			],
			"min":[
				-0.6442872285842896,
				0.35310235619544983,
				2.0452537536621094
			],
			"type":"VEC3"
		},
		{
			"bufferView":17,
			"componentType":5126,
			"count":14640,
			"type":"VEC3"
		},
		{
			"bufferView":18,
			"componentType":5126,
			"count":14640,
			"type":"VEC2"
		},
		{
			"bufferView":19,
			"componentType":5123,
			"count":86016,
			"type":"SCALAR"
		},
		{
			"bufferView":20,
			"componentType":5126,
			"count":4356,
			"max":[
				0.6229805946350098,
				0.6647743582725525,
				2.290601968765259
			],
			"min":[
				-0.6314556002616882,
				0.38428497314453125,
				2.0691909790039062
			],
			"type":"VEC3"
		},
		{
			"bufferView":21,
			"componentType":5126,
			"count":4356,
			"type":"VEC3"
		},
		{
			"bufferView":22,
			"componentType":5126,
			"count":4356,
			"type":"VEC2"
		},
		{
			"bufferView":23,
			"componentType":5123,
			"count":24576,
			"type":"SCALAR"
		},
		{
			"bufferView":24,
			"componentType":5126,
			"count":10596,
			"max":[
				0.6149823665618896,
				0.6404137015342712,
				2.292545795440674
			],
			"min":[
				-0.6233410239219666,
				0.40323933959007263,
				2.072467088699341
			],
			"type":"VEC3"
		},
		{
			"bufferView":25,
			"componentType":5126,
			"count":10596,
			"type":"VEC3"
		},
		{
			"bufferView":26,
			"componentType":5126,
			"count":10596,
			"type":"VEC2"
		},
		{
			"bufferView":27,
			"componentType":5123,
			"count":61440,
			"type":"SCALAR"
		}
	],
	"bufferViews":[
		{
			"buffer":0,
			"byteLength":191748,
			"byteOffset":0,
			"target":34962
		},
		{
			"buffer":0,
			"byteLength":191748,
			"byteOffset":191748,
			"target":34962
		},
		{
			"buffer":0,
			"byteLength":127832,
			"byteOffset":383496,
			"target":34962
		},
		{
			"buffer":0,
			"byteLength":148992,
			"byteOffset":511328,
			"target":34963
		},
		{
			"buffer":0,
			"byteLength":7716,
			"byteOffset":660320,
			"target":34962
		},
		{
			"buffer":0,
			"byteLength":7716,
			"byteOffset":668036,
			"target":34962
		},
		{
			"buffer":0,
			"byteLength":5144,
			"byteOffset":675752,
			"target":34962
		},
		{
			"buffer":0,
			"byteLength":5376,
			"byteOffset":680896,
			"target":34963
		},
		{
			"buffer":0,
			"byteLength":4920,
			"byteOffset":686272,
			"target":34962
		},
		{
			"buffer":0,
			"byteLength":4920,
			"byteOffset":691192,
			"target":34962
		},
		{
			"buffer":0,
			"byteLength":3280,
			"byteOffset":696112,
			"target":34962
		},
		{
			"buffer":0,
			"byteLength":3456,
			"byteOffset":699392,
			"target":34963
		},
		{
			"buffer":0,
			"byteLength":2424,
			"byteOffset":702848,
			"target":34962
		},
		{
			"buffer":0,
			"byteLength":2424,
			"byteOffset":705272,
			"target":34962
		},
		{
			"buffer":0,
			"byteLength":1616,
			"byteOffset":707696,
			"target":34962
		},
		{
			"buffer":0,
			"byteLength":1920,
			"byteOffset":709312,
			"target":34963
		},
		{
			"buffer":0,
			"byteLength":175680,
			"byteOffset":711232,
			"target":34962
		},
		{
			"buffer":0,
			"byteLength":175680,
			"byteOffset":886912,
			"target":34962
		},
		{
			"buffer":0,
			"byteLength":117120,
			"byteOffset":1062592,
			"target":34962
		},
		{
			"buffer":0,
			"byteLength":172032,
			"byteOffset":1179712,
			"target":34963
		},
		{
			"buffer":0,
			"byteLength":52272,
			"byteOffset":1351744,
			"target":34962
		},
		{
			"buffer":0,
			"byteLength":52272,
			"byteOffset":1404016,
			"target":34962
		},
		{
			"buffer":0,
			"byteLength":34848,
			"byteOffset":1456288,
			"target":34962
		},
		{
			"buffer":0,
			"byteLength":49152,
			"byteOffset":1491136,
			"target":34963
		},
		{
			"buffer":0,
			"byteLength":127152,
			"byteOffset":1540288,
			"target":34962
		},
		{
			"buffer":0,
			"byteLength":127152,
			"byteOffset":1667440,
			"target":34962
		},
		{
			"buffer":0,
			"byteLength":84768,
			"byteOffset":1794592,
			"target":34962
		},
		{
			"buffer":0,
			"byteLength":122880,
			"byteOffset":1879360,
			"target":34963
		}
	],
	"samplers":[
		{
			"magFilter":9729,
			"minFilter":9987
		}
	],
	"buffers":[
		{
			"byteLength":2002240,
			"uri":"araignee_V2.bin"
		}
	]
}
