{
	"asset":{
		"generator":"Khronos glTF Blender I/O v4.2.69",
		"version":"2.0"
	},
	"scene":0,
	"scenes":[
		{
			"name":"Scene",
			"nodes":[
				0
			]
		}
	],
	"nodes":[
		{
			"mesh":0,
			"name":"skull"
		}
	],
	"meshes":[
		{
			"name":"skull",
			"primitives":[
				{
					"attributes":{
						"POSITION":0,
						"NORMAL":1
					},
					"indices":2
				}
			]
		}
	],
	"accessors":[
		{
			"bufferView":0,
			"componentType":5126,
			"count":33190,
			"max":[
				4.657077312469482,
				7.950479507446289,
				8.042535781860352
			],
			"min":[
				-5.121321678161621,
				-2.7589480876922607,
				-5.773591041564941
			],
			"type":"VEC3"
		},
		{
			"bufferView":1,
			"componentType":5126,
			"count":33190,
			"type":"VEC3"
		},
		{
			"bufferView":2,
			"componentType":5123,
			"count":193953,
			"type":"SCALAR"
		}
	],
	"bufferViews":[
		{
			"buffer":0,
			"byteLength":398280,
			"byteOffset":0,
			"target":34962
		},
		{
			"buffer":0,
			"byteLength":398280,
			"byteOffset":398280,
			"target":34962
		},
		{
			"buffer":0,
			"byteLength":387906,
			"byteOffset":796560,
			"target":34963
		}
	],
	"buffers":[
		{
			"byteLength":1184468,
			"uri":"crane.bin"
		}
	]
}
