{
	"asset":{
		"generator":"Khronos glTF Blender I/O v4.2.69",
		"version":"2.0"
	},
	"scene":0,
	"scenes":[
		{
			"name":"Scene",
			"nodes":[
				0
			]
		}
	],
	"nodes":[
		{
			"mesh":0,
			"name":"Ghost_Booh_N1",
			"rotation":[
				0.7071068286895752,
				0,
				0,
				0.7071068286895752
			],
			"translation":[
				-1.9266587495803833,
				41.014522552490234,
				-39.75477981567383
			]
		}
	],
	"meshes":[
		{
			"name":"Ghost_Booh_N1",
			"primitives":[
				{
					"attributes":{
						"POSITION":0,
						"NORMAL":1
					},
					"indices":2
				}
			]
		}
	],
	"accessors":[
		{
			"bufferView":0,
			"componentType":5126,
			"count":46995,
			"max":[
				52.228389739990234,
				32.51944351196289,
				41.01451873779297
			],
			"min":[
				-49.38581466674805,
				-44.21110153198242,
				-58.985469818115234
			],
			"type":"VEC3"
		},
		{
			"bufferView":1,
			"componentType":5126,
			"count":46995,
			"type":"VEC3"
		},
		{
			"bufferView":2,
			"componentType":5123,
			"count":282036,
			"type":"SCALAR"
		}
	],
	"bufferViews":[
		{
			"buffer":0,
			"byteLength":563940,
			"byteOffset":0,
			"target":34962
		},
		{
			"buffer":0,
			"byteLength":563940,
			"byteOffset":563940,
			"target":34962
		},
		{
			"buffer":0,
			"byteLength":564072,
			"byteOffset":1127880,
			"target":34963
		}
	],
	"buffers":[
		{
			"byteLength":1691952,
			"uri":"ghost.bin"
		}
	]
}
