{
	"asset":{
		"generator":"Khronos glTF Blender I/O v4.2.69",
		"version":"2.0"
	},
	"scene":0,
	"scenes":[
		{
			"name":"Scene",
			"nodes":[
				0
			]
		}
	],
	"nodes":[
		{
			"mesh":0,
			"name":"Abdomen.001",
			"rotation":[
				0.06369546800851822,
				0,
				0,
				0.9979694485664368
			],
			"translation":[
				-0.08342742919921875,
				2.268584728240967,
				-5.364204406738281
			]
		}
	],
	"materials":[
		{
			"doubleSided":true,
			"name":"TexturePaintPatte",
			"pbrMetallicRoughness":{
				"baseColorTexture":{
					"index":0
				},
				"metallicFactor":0
			}
		},
		{
			"doubleSided":true,
			"name":"BaseTHoraxTeexture",
			"pbrMetallicRoughness":{
				"baseColorFactor":[
					0,
					0,
					0,
					1
				],
				"metallicFactor":0
			}
		},
		{
			"doubleSided":true,
			"name":"Couleur2",
			"pbrMetallicRoughness":{
				"baseColorFactor":[
					0.6141078472137451,
					0.4695335030555725,
					0.25507161021232605,
					1
				],
				"metallicFactor":0
			}
		},
		{
			"doubleSided":true,
			"name":"Couleur1",
			"pbrMetallicRoughness":{
				"baseColorFactor":[
					0.31854820251464844,
					0.08537415415048599,
					0.00979294627904892,
					1
				],
				"metallicFactor":0
			}
		},
		{
			"doubleSided":true,
			"name":"Material.002",
			"pbrMetallicRoughness":{
				"baseColorTexture":{
					"index":1
				},
				"metallicFactor":0
			}
		},
		{
			"doubleSided":true,
			"name":"oEIL",
			"pbrMetallicRoughness":{
				"baseColorFactor":[
					1,
					0.32269129157066345,
					0,
					1
				],
				"metallicFactor":0,
				"roughnessFactor":0.36477985978126526
			}
		},
		{
			"doubleSided":true,
			"name":"NOIROEIL",
			"pbrMetallicRoughness":{
				"baseColorFactor":[
					0,
					0,
					0,
					1
				],
				"metallicFactor":0,
				"roughnessFactor":0.2578616440296173
			}
		}
	],
	"meshes":[
		{
			"name":"Cube.001",
			"primitives":[
				{
					"attributes":{
						"POSITION":0,
						"NORMAL":1,
						"TEXCOORD_0":2
					},
					"indices":3,
					"material":0
				},
				{
					"attributes":{
						"POSITION":4,
						"NORMAL":5,
						"TEXCOORD_0":6
					},
					"indices":7,
					"material":1
				},
				{
					"attributes":{
						"POSITION":8,
						"NORMAL":9,
						"TEXCOORD_0":10
					},
					"indices":11,
					"material":2
				},
				{
					"attributes":{
						"POSITION":12,
						"NORMAL":13,
						"TEXCOORD_0":14
					},
					"indices":15,
					"material":3
				},
				{
					"attributes":{
						"POSITION":16,
						"NORMAL":17,
						"TEXCOORD_0":18
					},
					"indices":19,
					"material":4
				},
				{
					"attributes":{
						"POSITION":20,
						"NORMAL":21,
						"TEXCOORD_0":22
					},
					"indices":23,
					"material":5
				},
				{
					"attributes":{
						"POSITION":24,
						"NORMAL":25,
						"TEXCOORD_0":26
					},
					"indices":27,
					"material":6
				}
			]
		}
	],
	"textures":[
		{
			"sampler":0,
			"source":0
		},
		{
			"sampler":0,
			"source":1
		}
	],
	"images":[
		{
			"mimeType":"image/png",
			"name":"Abdomen Base Color",
			"uri":"Abdomen%20Base%20Color.png"
		},
		{
			"mimeType":"image/png",
			"name":"Abdomen",
			"uri":"Abdomen.png"
		}
	],
	"accessors":[
		{
			"bufferView":0,
			"componentType":5126,
			"count":15979,
			"max":[
				9.499351501464844,
				2.67573881149292,
				14.145551681518555
			],
			"min":[
				-9.588494300842285,
				-4.537191390991211,
				-1.8775891065597534
			],
			"type":"VEC3"
		},
		{
			"bufferView":1,
			"componentType":5126,
			"count":15979,
			"type":"VEC3"
		},
		{
			"bufferView":2,
			"componentType":5126,
			"count":15979,
			"type":"VEC2"
		},
		{
			"bufferView":3,
			"componentType":5123,
			"count":74496,
			"type":"SCALAR"
		},
		{
			"bufferView":4,
			"componentType":5126,
			"count":643,
			"max":[
				2.299081563949585,
				2.5035972595214844,
				8.488242149353027
			],
			"min":[
				-2.29909086227417,
				-1.3418601751327515,
				2.947065830230713
			],
			"type":"VEC3"
		},
		{
			"bufferView":5,
			"componentType":5126,
			"count":643,
			"type":"VEC3"
		},
		{
			"bufferView":6,
			"componentType":5126,
			"count":643,
			"type":"VEC2"
		},
		{
			"bufferView":7,
			"componentType":5123,
			"count":2688,
			"type":"SCALAR"
		},
		{
			"bufferView":8,
			"componentType":5126,
			"count":410,
			"max":[
				1.1002615690231323,
				0.28481587767601013,
				9.179937362670898
			],
			"min":[
				-1.1002700328826904,
				-0.7136353254318237,
				8.288581848144531
			],
			"type":"VEC3"
		},
		{
			"bufferView":9,
			"componentType":5126,
			"count":410,
			"type":"VEC3"
		},
		{
			"bufferView":10,
			"componentType":5126,
			"count":410,
			"type":"VEC2"
		},
		{
			"bufferView":11,
			"componentType":5123,
			"count":1728,
			"type":"SCALAR"
		},
		{
			"bufferView":12,
			"componentType":5126,
			"count":202,
			"max":[
				2.6355371475219727,
				2.4786505699157715,
				3.3948373794555664
			],
			"min":[
				-2.8307478427886963,
				-2.8223230838775635,
				-3.0603930950164795
			],
			"type":"VEC3"
		},
		{
			"bufferView":13,
			"componentType":5126,
			"count":202,
			"type":"VEC3"
		},
		{
			"bufferView":14,
			"componentType":5126,
			"count":202,
			"type":"VEC2"
		},
		{
			"bufferView":15,
			"componentType":5123,
			"count":960,
			"type":"SCALAR"
		},
		{
			"bufferView":16,
			"componentType":5126,
			"count":14640,
			"max":[
				1.5345327854156494,
				1.7520769834518433,
				7.709888935089111
			],
			"min":[
				-1.5549873113632202,
				0.902435302734375,
				6.880290985107422
			],
			"type":"VEC3"
		},
		{
			"bufferView":17,
			"componentType":5126,
			"count":14640,
			"type":"VEC3"
		},
		{
			"bufferView":18,
			"componentType":5126,
			"count":14640,
			"type":"VEC2"
		},
		{
			"bufferView":19,
			"componentType":5123,
			"count":86016,
			"type":"SCALAR"
		},
		{
			"bufferView":20,
			"componentType":5126,
			"count":4356,
			"max":[
				1.5035637617111206,
				1.6989856958389282,
				7.705648899078369
			],
			"min":[
				-1.5240181684494019,
				0.9821297526359558,
				6.960816383361816
			],
			"type":"VEC3"
		},
		{
			"bufferView":21,
			"componentType":5126,
			"count":4356,
			"type":"VEC3"
		},
		{
			"bufferView":22,
			"componentType":5126,
			"count":4356,
			"type":"VEC2"
		},
		{
			"bufferView":23,
			"componentType":5123,
			"count":24576,
			"type":"SCALAR"
		},
		{
			"bufferView":24,
			"componentType":5126,
			"count":10596,
			"max":[
				1.4842599630355835,
				1.6367263793945312,
				7.712188243865967
			],
			"min":[
				-1.5044336318969727,
				1.0305720567703247,
				6.971837043762207
			],
			"type":"VEC3"
		},
		{
			"bufferView":25,
			"componentType":5126,
			"count":10596,
			"type":"VEC3"
		},
		{
			"bufferView":26,
			"componentType":5126,
			"count":10596,
			"type":"VEC2"
		},
		{
			"bufferView":27,
			"componentType":5123,
			"count":61440,
			"type":"SCALAR"
		}
	],
	"bufferViews":[
		{
			"buffer":0,
			"byteLength":191748,
			"byteOffset":0,
			"target":34962
		},
		{
			"buffer":0,
			"byteLength":191748,
			"byteOffset":191748,
			"target":34962
		},
		{
			"buffer":0,
			"byteLength":127832,
			"byteOffset":383496,
			"target":34962
		},
		{
			"buffer":0,
			"byteLength":148992,
			"byteOffset":511328,
			"target":34963
		},
		{
			"buffer":0,
			"byteLength":7716,
			"byteOffset":660320,
			"target":34962
		},
		{
			"buffer":0,
			"byteLength":7716,
			"byteOffset":668036,
			"target":34962
		},
		{
			"buffer":0,
			"byteLength":5144,
			"byteOffset":675752,
			"target":34962
		},
		{
			"buffer":0,
			"byteLength":5376,
			"byteOffset":680896,
			"target":34963
		},
		{
			"buffer":0,
			"byteLength":4920,
			"byteOffset":686272,
			"target":34962
		},
		{
			"buffer":0,
			"byteLength":4920,
			"byteOffset":691192,
			"target":34962
		},
		{
			"buffer":0,
			"byteLength":3280,
			"byteOffset":696112,
			"target":34962
		},
		{
			"buffer":0,
			"byteLength":3456,
			"byteOffset":699392,
			"target":34963
		},
		{
			"buffer":0,
			"byteLength":2424,
			"byteOffset":702848,
			"target":34962
		},
		{
			"buffer":0,
			"byteLength":2424,
			"byteOffset":705272,
			"target":34962
		},
		{
			"buffer":0,
			"byteLength":1616,
			"byteOffset":707696,
			"target":34962
		},
		{
			"buffer":0,
			"byteLength":1920,
			"byteOffset":709312,
			"target":34963
		},
		{
			"buffer":0,
			"byteLength":175680,
			"byteOffset":711232,
			"target":34962
		},
		{
			"buffer":0,
			"byteLength":175680,
			"byteOffset":886912,
			"target":34962
		},
		{
			"buffer":0,
			"byteLength":117120,
			"byteOffset":1062592,
			"target":34962
		},
		{
			"buffer":0,
			"byteLength":172032,
			"byteOffset":1179712,
			"target":34963
		},
		{
			"buffer":0,
			"byteLength":52272,
			"byteOffset":1351744,
			"target":34962
		},
		{
			"buffer":0,
			"byteLength":52272,
			"byteOffset":1404016,
			"target":34962
		},
		{
			"buffer":0,
			"byteLength":34848,
			"byteOffset":1456288,
			"target":34962
		},
		{
			"buffer":0,
			"byteLength":49152,
			"byteOffset":1491136,
			"target":34963
		},
		{
			"buffer":0,
			"byteLength":127152,
			"byteOffset":1540288,
			"target":34962
		},
		{
			"buffer":0,
			"byteLength":127152,
			"byteOffset":1667440,
			"target":34962
		},
		{
			"buffer":0,
			"byteLength":84768,
			"byteOffset":1794592,
			"target":34962
		},
		{
			"buffer":0,
			"byteLength":122880,
			"byteOffset":1879360,
			"target":34963
		}
	],
	"samplers":[
		{
			"magFilter":9729,
			"minFilter":9987
		}
	],
	"buffers":[
		{
			"byteLength":2002240,
			"uri":"spider.bin"
		}
	]
}
