{
	"asset":{
		"generator":"Khronos glTF Blender I/O v4.2.69",
		"version":"2.0"
	},
	"scene":0,
	"scenes":[
		{
			"name":"Scene",
			"nodes":[
				0
			]
		}
	],
	"nodes":[
		{
			"mesh":0,
			"name":"Abdomen.001",
			"rotation":[
				0.06369546800851822,
				0,
				0,
				0.9979694485664368
			],
			"translation":[
				-0.263092041015625,
				85.21841430664062,
				-2.4183318614959717
			]
		}
	],
	"materials":[
		{
			"doubleSided":true,
			"name":"TexturePaintPatte",
			"pbrMetallicRoughness":{
				"baseColorTexture":{
					"index":0
				},
				"metallicFactor":0
			}
		},
		{
			"doubleSided":true,
			"name":"BaseTHoraxTeexture",
			"pbrMetallicRoughness":{
				"baseColorFactor":[
					0,
					0,
					0,
					1
				],
				"metallicFactor":0
			}
		},
		{
			"doubleSided":true,
			"name":"Couleur2",
			"pbrMetallicRoughness":{
				"baseColorFactor":[
					0.6141078472137451,
					0.4695335030555725,
					0.25507161021232605,
					1
				],
				"metallicFactor":0
			}
		},
		{
			"doubleSided":true,
			"name":"Couleur1",
			"pbrMetallicRoughness":{
				"baseColorFactor":[
					0.31950438022613525,
					0.25732481479644775,
					0.0015947931678965688,
					1
				],
				"metallicFactor":0
			}
		},
		{
			"doubleSided":true,
			"name":"Material.002",
			"pbrMetallicRoughness":{
				"baseColorTexture":{
					"index":1
				},
				"metallicFactor":0
			}
		},
		{
			"doubleSided":true,
			"name":"oEIL",
			"pbrMetallicRoughness":{
				"baseColorFactor":[
					1,
					0.12643277645111084,
					0.017394568771123886,
					1
				],
				"metallicFactor":0,
				"roughnessFactor":0.36477985978126526
			}
		},
		{
			"doubleSided":true,
			"name":"NOIROEIL",
			"pbrMetallicRoughness":{
				"baseColorFactor":[
					0,
					0,
					0,
					1
				],
				"metallicFactor":0,
				"roughnessFactor":0.2578616440296173
			}
		},
		{
			"doubleSided":true,
			"name":"Toile",
			"pbrMetallicRoughness":{
				"baseColorFactor":[
					0.800000011920929,
					0.800000011920929,
					0.800000011920929,
					1
				],
				"metallicFactor":0,
				"roughnessFactor":0.5
			}
		}
	],
	"meshes":[
		{
			"name":"Cube.001",
			"primitives":[
				{
					"attributes":{
						"POSITION":0,
						"NORMAL":1,
						"TEXCOORD_0":2
					},
					"indices":3,
					"material":0
				},
				{
					"attributes":{
						"POSITION":4,
						"NORMAL":5,
						"TEXCOORD_0":6
					},
					"indices":7,
					"material":1
				},
				{
					"attributes":{
						"POSITION":8,
						"NORMAL":9,
						"TEXCOORD_0":10
					},
					"indices":11,
					"material":2
				},
				{
					"attributes":{
						"POSITION":12,
						"NORMAL":13,
						"TEXCOORD_0":14
					},
					"indices":15,
					"material":3
				},
				{
					"attributes":{
						"POSITION":16,
						"NORMAL":17,
						"TEXCOORD_0":18
					},
					"indices":19,
					"material":4
				},
				{
					"attributes":{
						"POSITION":20,
						"NORMAL":21,
						"TEXCOORD_0":22
					},
					"indices":23,
					"material":5
				},
				{
					"attributes":{
						"POSITION":24,
						"NORMAL":25,
						"TEXCOORD_0":26
					},
					"indices":27,
					"material":6
				},
				{
					"attributes":{
						"POSITION":28,
						"NORMAL":29,
						"TEXCOORD_0":30
					},
					"indices":31,
					"material":7
				}
			]
		}
	],
	"textures":[
		{
			"sampler":0,
			"source":0
		},
		{
			"sampler":0,
			"source":1
		}
	],
	"images":[
		{
			"mimeType":"image/png",
			"name":"Abdomen Base Color",
			"uri":"Abdomen%20Base%20Color.png"
		},
		{
			"mimeType":"image/png",
			"name":"Abdomen",
			"uri":"Abdomen.png"
		}
	],
	"accessors":[
		{
			"bufferView":0,
			"componentType":5126,
			"count":15979,
			"max":[
				9.679015159606934,
				-79.97553253173828,
				21.76917266845703
			],
			"min":[
				-9.408830642700195,
				-87.18846130371094,
				5.74603271484375
			],
			"type":"VEC3"
		},
		{
			"bufferView":1,
			"componentType":5126,
			"count":15979,
			"type":"VEC3"
		},
		{
			"bufferView":2,
			"componentType":5126,
			"count":15979,
			"type":"VEC2"
		},
		{
			"bufferView":3,
			"componentType":5123,
			"count":74496,
			"type":"SCALAR"
		},
		{
			"bufferView":4,
			"componentType":5126,
			"count":643,
			"max":[
				2.4787449836730957,
				-80.14767456054688,
				16.11186981201172
			],
			"min":[
				-2.11942720413208,
				-83.99312591552734,
				10.570693969726562
			],
			"type":"VEC3"
		},
		{
			"bufferView":5,
			"componentType":5126,
			"count":643,
			"type":"VEC3"
		},
		{
			"bufferView":6,
			"componentType":5126,
			"count":643,
			"type":"VEC2"
		},
		{
			"bufferView":7,
			"componentType":5123,
			"count":2688,
			"type":"SCALAR"
		},
		{
			"bufferView":8,
			"componentType":5126,
			"count":410,
			"max":[
				1.2799251079559326,
				-82.366455078125,
				16.803558349609375
			],
			"min":[
				-0.9206064343452454,
				-83.36490631103516,
				15.912208557128906
			],
			"type":"VEC3"
		},
		{
			"bufferView":9,
			"componentType":5126,
			"count":410,
			"type":"VEC3"
		},
		{
			"bufferView":10,
			"componentType":5126,
			"count":410,
			"type":"VEC2"
		},
		{
			"bufferView":11,
			"componentType":5123,
			"count":1728,
			"type":"SCALAR"
		},
		{
			"bufferView":12,
			"componentType":5126,
			"count":202,
			"max":[
				2.8152008056640625,
				-80.17261505126953,
				11.018463134765625
			],
			"min":[
				-2.6510844230651855,
				-85.47358703613281,
				4.563232421875
			],
			"type":"VEC3"
		},
		{
			"bufferView":13,
			"componentType":5126,
			"count":202,
			"type":"VEC3"
		},
		{
			"bufferView":14,
			"componentType":5126,
			"count":202,
			"type":"VEC2"
		},
		{
			"bufferView":15,
			"componentType":5123,
			"count":960,
			"type":"SCALAR"
		},
		{
			"bufferView":16,
			"componentType":5126,
			"count":14640,
			"max":[
				1.7141964435577393,
				-80.8991928100586,
				15.333511352539062
			],
			"min":[
				-1.37532377243042,
				-81.74883270263672,
				14.503913879394531
			],
			"type":"VEC3"
		},
		{
			"bufferView":17,
			"componentType":5126,
			"count":14640,
			"type":"VEC3"
		},
		{
			"bufferView":18,
			"componentType":5126,
			"count":14640,
			"type":"VEC2"
		},
		{
			"bufferView":19,
			"componentType":5123,
			"count":86016,
			"type":"SCALAR"
		},
		{
			"bufferView":20,
			"componentType":5126,
			"count":4356,
			"max":[
				1.683227300643921,
				-80.95228576660156,
				15.329269409179688
			],
			"min":[
				-1.3443546295166016,
				-81.66913604736328,
				14.584442138671875
			],
			"type":"VEC3"
		},
		{
			"bufferView":21,
			"componentType":5126,
			"count":4356,
			"type":"VEC3"
		},
		{
			"bufferView":22,
			"componentType":5126,
			"count":4356,
			"type":"VEC2"
		},
		{
			"bufferView":23,
			"componentType":5123,
			"count":24576,
			"type":"SCALAR"
		},
		{
			"bufferView":24,
			"componentType":5126,
			"count":10596,
			"max":[
				1.6639235019683838,
				-81.01454162597656,
				15.3358154296875
			],
			"min":[
				-1.3247699737548828,
				-81.62069702148438,
				14.595458984375
			],
			"type":"VEC3"
		},
		{
			"bufferView":25,
			"componentType":5126,
			"count":10596,
			"type":"VEC3"
		},
		{
			"bufferView":26,
			"componentType":5126,
			"count":10596,
			"type":"VEC2"
		},
		{
			"bufferView":27,
			"componentType":5123,
			"count":61440,
			"type":"SCALAR"
		},
		{
			"bufferView":28,
			"componentType":5126,
			"count":24,
			"max":[
				0.08537667989730835,
				0.01340484619140625,
				10.653831481933594
			],
			"min":[
				-0.06546217203140259,
				-82.31105041503906,
				-0.0450286865234375
			],
			"type":"VEC3"
		},
		{
			"bufferView":29,
			"componentType":5126,
			"count":24,
			"type":"VEC3"
		},
		{
			"bufferView":30,
			"componentType":5126,
			"count":24,
			"type":"VEC2"
		},
		{
			"bufferView":31,
			"componentType":5123,
			"count":36,
			"type":"SCALAR"
		}
	],
	"bufferViews":[
		{
			"buffer":0,
			"byteLength":191748,
			"byteOffset":0,
			"target":34962
		},
		{
			"buffer":0,
			"byteLength":191748,
			"byteOffset":191748,
			"target":34962
		},
		{
			"buffer":0,
			"byteLength":127832,
			"byteOffset":383496,
			"target":34962
		},
		{
			"buffer":0,
			"byteLength":148992,
			"byteOffset":511328,
			"target":34963
		},
		{
			"buffer":0,
			"byteLength":7716,
			"byteOffset":660320,
			"target":34962
		},
		{
			"buffer":0,
			"byteLength":7716,
			"byteOffset":668036,
			"target":34962
		},
		{
			"buffer":0,
			"byteLength":5144,
			"byteOffset":675752,
			"target":34962
		},
		{
			"buffer":0,
			"byteLength":5376,
			"byteOffset":680896,
			"target":34963
		},
		{
			"buffer":0,
			"byteLength":4920,
			"byteOffset":686272,
			"target":34962
		},
		{
			"buffer":0,
			"byteLength":4920,
			"byteOffset":691192,
			"target":34962
		},
		{
			"buffer":0,
			"byteLength":3280,
			"byteOffset":696112,
			"target":34962
		},
		{
			"buffer":0,
			"byteLength":3456,
			"byteOffset":699392,
			"target":34963
		},
		{
			"buffer":0,
			"byteLength":2424,
			"byteOffset":702848,
			"target":34962
		},
		{
			"buffer":0,
			"byteLength":2424,
			"byteOffset":705272,
			"target":34962
		},
		{
			"buffer":0,
			"byteLength":1616,
			"byteOffset":707696,
			"target":34962
		},
		{
			"buffer":0,
			"byteLength":1920,
			"byteOffset":709312,
			"target":34963
		},
		{
			"buffer":0,
			"byteLength":175680,
			"byteOffset":711232,
			"target":34962
		},
		{
			"buffer":0,
			"byteLength":175680,
			"byteOffset":886912,
			"target":34962
		},
		{
			"buffer":0,
			"byteLength":117120,
			"byteOffset":1062592,
			"target":34962
		},
		{
			"buffer":0,
			"byteLength":172032,
			"byteOffset":1179712,
			"target":34963
		},
		{
			"buffer":0,
			"byteLength":52272,
			"byteOffset":1351744,
			"target":34962
		},
		{
			"buffer":0,
			"byteLength":52272,
			"byteOffset":1404016,
			"target":34962
		},
		{
			"buffer":0,
			"byteLength":34848,
			"byteOffset":1456288,
			"target":34962
		},
		{
			"buffer":0,
			"byteLength":49152,
			"byteOffset":1491136,
			"target":34963
		},
		{
			"buffer":0,
			"byteLength":127152,
			"byteOffset":1540288,
			"target":34962
		},
		{
			"buffer":0,
			"byteLength":127152,
			"byteOffset":1667440,
			"target":34962
		},
		{
			"buffer":0,
			"byteLength":84768,
			"byteOffset":1794592,
			"target":34962
		},
		{
			"buffer":0,
			"byteLength":122880,
			"byteOffset":1879360,
			"target":34963
		},
		{
			"buffer":0,
			"byteLength":288,
			"byteOffset":2002240,
			"target":34962
		},
		{
			"buffer":0,
			"byteLength":288,
			"byteOffset":2002528,
			"target":34962
		},
		{
			"buffer":0,
			"byteLength":192,
			"byteOffset":2002816,
			"target":34962
		},
		{
			"buffer":0,
			"byteLength":72,
			"byteOffset":2003008,
			"target":34963
		}
	],
	"samplers":[
		{
			"magFilter":9729,
			"minFilter":9987
		}
	],
	"buffers":[
		{
			"byteLength":2003080,
			"uri":"spider3.bin"
		}
	]
}
