{
	"asset":{
		"generator":"Khronos glTF Blender I/O v4.2.69",
		"version":"2.0"
	},
	"scene":0,
	"scenes":[
		{
			"name":"Scene",
			"nodes":[
				0
			]
		}
	],
	"nodes":[
		{
			"mesh":0,
			"name":"charlotteweb2"
		}
	],
	"meshes":[
		{
			"name":"charlotteweb2",
			"primitives":[
				{
					"attributes":{
						"POSITION":0,
						"NORMAL":1
					},
					"indices":2
				}
			]
		}
	],
	"accessors":[
		{
			"bufferView":0,
			"componentType":5126,
			"count":71432,
			"max":[
				11.441549301147461,
				0.2545648515224457,
				11.601675987243652
			],
			"min":[
				-12.374197006225586,
				-0.19235220551490784,
				-11.58503532409668
			],
			"type":"VEC3"
		},
		{
			"bufferView":1,
			"componentType":5126,
			"count":71432,
			"type":"VEC3"
		},
		{
			"bufferView":2,
			"componentType":5125,
			"count":432192,
			"type":"SCALAR"
		}
	],
	"bufferViews":[
		{
			"buffer":0,
			"byteLength":857184,
			"byteOffset":0,
			"target":34962
		},
		{
			"buffer":0,
			"byteLength":857184,
			"byteOffset":857184,
			"target":34962
		},
		{
			"buffer":0,
			"byteLength":1728768,
			"byteOffset":1714368,
			"target":34963
		}
	],
	"buffers":[
		{
			"byteLength":3443136,
			"uri":"web.bin"
		}
	]
}
